<?xml version="1.0" encoding="utf-8"?>
<!-- Generator: Adobe Illustrator 24.0.1, SVG Export Plug-In . SVG Version: 6.00 Build 0)  -->
<svg version="1.1" id="レイヤー_1" xmlns="http://www.w3.org/2000/svg" xmlns:xlink="http://www.w3.org/1999/xlink" x="0px"
	 y="0px" viewBox="0 0 610 23.9" style="enable-background:new 0 0 610 23.9;" xml:space="preserve">
<style type="text/css">
	.st0{fill:#231815;}
</style>
<g>
	<g>
		<g>
			<path class="st0" d="M178.2,5.6c0,0.7-0.1,3.6-0.1,4.2c0,0.9,0.1,8.2,0.1,9c0,0.2,0,1,0,1.2c0,1.2-1.2,1.3-1.4,1.3
				c-0.7,0-0.7-0.5-0.7-0.8c0-0.7,0.1-3.6,0.1-4.3c-0.6,0.5-2.2,1.8-3.2,2.6c0,0.3-0.1,0.7-0.3,0.7c-0.2,0-0.3-0.2-0.4-0.4l-1.1-2.5
				c1.6,0.1,3.4-0.3,5-0.9c0-3,0-3.3,0-5.8h-2.1c-1.1,0-1.5,0-2,0.1l-0.3-0.7c1.1,0.1,2.4,0.1,2.6,0.1h1.8c0-3.8,0-4.2-0.3-5.4
				l2.6,0.6c0.2,0.1,0.4,0.1,0.4,0.3C178.8,5.2,178.6,5.4,178.2,5.6z M186.7,20.6c-0.9,0.4-2.5,0.4-3,0.4c-3,0-3.4-0.5-3.4-2.7
				c0-1.4,0.1-7.6,0.1-8.8c0-1.3,0-3.9-0.3-5.2l2.4,0.6c0.1,0,0.4,0.1,0.4,0.3c0,0.2-0.1,0.2-0.6,0.6c0,2.5-0.1,5.7,0,6
				c2-2.1,3-4.1,3.2-4.9l2,2c0.1,0.1,0.2,0.2,0.2,0.3c0,0.3-0.3,0.3-0.4,0.3c-0.1,0-0.2,0-0.4,0c-1.2,1-3.3,2.3-4.6,2.8
				c0,0.7,0,5.9,0.1,6.1c0.1,0.6,0.5,0.6,1.6,0.6c1.6,0,1.9,0,2.6-3.4h0.1c0.1,0.5,0.4,2.4,0.5,2.6c0.1,0.1,0.6,0.5,0.7,0.5
				c0.1,0.1,0.1,0.3,0.1,0.3C188,19.1,187.8,20.1,186.7,20.6z"/>
			<path class="st0" d="M206,15.1c-3.1-1.3-5.3-4-6.3-6c-1.4,1.7-2.6,3.2-4.7,4.6l1.7,0.7h4.9l0.6-0.7c0.1-0.1,0.2-0.2,0.3-0.2
				c0.1,0,0.2,0.1,0.3,0.2l1.1,1c0.1,0.1,0.3,0.2,0.3,0.3c0,0.2-0.1,0.3-0.5,0.5c0,0.7,0.1,4.1,0.1,4.7c0,0.6-0.5,0.9-1.3,0.9
				c-0.2,0-0.7,0-0.7-0.8c0-0.2,0-0.2,0-0.5h-5.3c0.1,1.3-1.2,1.3-1.2,1.3c-0.8,0-0.8-0.5-0.8-0.8c0-0.7,0.1-3.7,0.1-4.3
				c0-1,0-1.7-0.1-2.2c-1.7,1.1-3.1,1.6-3.8,1.9l-0.1-0.1c2.2-1.5,4.1-3.4,5.7-5.6c0.7-0.9,1.4-2,1.6-2.9l2.1,1.1
				c0.2,0.1,0.3,0.2,0.3,0.4c0,0.2-0.2,0.3-0.3,0.3c2.6,2.6,5.2,3.5,7.9,3.7v0.1C207.3,13.2,206.5,13.7,206,15.1z M197.2,6.3
				c-1.6,1.5-3.8,2.9-5.7,3.5l-0.1-0.2c0.9-0.6,2-2,2.3-2.5c1.5-1.9,1.6-2.4,1.8-3l2.2,1.6c0.1,0.1,0.2,0.2,0.2,0.3
				C198.1,6.2,197.8,6.3,197.2,6.3z M201.9,14.9h-5.3v4.6h5.3V14.9z M204.8,8.9c-0.6,0-0.7-0.2-1.2-1c-0.4-0.6-2.2-2.8-3.4-3.5
				l0-0.1c4.3,0.5,5.7,2.2,5.7,3.3C205.9,8.1,205.7,8.9,204.8,8.9z"/>
			<path class="st0" d="M230.2,8.9c-0.2,0-0.4,0.2-0.5,0.2c-2.4,1.5-2.6,1.7-3.9,2.4c-0.9,3.7-1.7,7-5.4,9l-0.1-0.1
				c2.9-2.9,3.6-8.5,3.6-9.1c0-0.7-0.2-0.9-1.2-1.2c0.3-0.2,0.5-0.4,1.2-0.4c0.6,0,2,0.3,2.1,1C227,9.5,228,8.4,228,8
				c0-0.2-0.1-0.2-0.2-0.2c-0.6,0-5.7,0.7-7,1.2c-0.2,0.1-0.9,0.4-1.1,0.4c-0.4,0-1.7-0.9-1.7-2c0-0.6,0.1-1,0.2-1.3
				c0.6,1,1,1.3,1.7,1.3c1.3,0,8.4-0.8,8.5-0.9c0.1-0.1,0.7-0.5,0.9-0.5c0.2,0,1.1,0.8,1.4,1.1c0.2,0.2,0.7,0.7,0.7,1
				C231.4,8.7,231.3,8.7,230.2,8.9z"/>
			<path class="st0" d="M246.1,11.5c-0.4,0.2-0.4,0.3-0.9,1.3c-0.8,1.7-1.7,3.7-4,5.6c-1,0.8-2.9,2.1-5,2.3l0-0.1
				c1.9-1,6.1-4.4,7.4-9.5c-2.7,0.2-5.9,0.9-6.4,1.1c-0.1,0-0.7,0.3-0.8,0.3c-0.6,0-1.8-1.3-1.8-2.5c0-0.3,0.1-0.6,0.2-0.9
				c0.7,1.3,1.5,1.3,2,1.3c1.2,0,6.5-0.6,6.9-0.7c0.1-0.1,0.7-0.5,0.8-0.6c0.1-0.1,0.1-0.1,0.3-0.1c0.3,0,1.8,1.3,1.8,1.8
				C246.6,11.1,246.5,11.3,246.1,11.5z M243.4,7.7c-1.1,0-3.5,0.2-4.5,0.4c-0.8,0.2-0.9,0.2-1.1,0.2c-0.7,0-1.6-1-1.6-2.1
				c0-0.1,0-0.2,0.1-0.4c0.8,0.8,1.6,0.8,2.3,0.8c2,0,3.6-0.4,4-0.6c0.4-0.2,0.8-0.3,0.9-0.3c0.5,0,1.9,0.4,1.9,1.2
				C245.3,7.7,244.6,7.7,243.4,7.7z"/>
			<path class="st0" d="M256.8,10.6c-0.1,0.1-0.2,0.3-0.3,0.5c-1.6,2.9-3.9,5.5-6.9,6.8l-0.1-0.1c2.9-2.8,5.1-7.2,5.1-8.2
				c0-0.7-0.6-1-1.2-1.3c0.3-0.1,0.5-0.2,1-0.2c1.3,0,2.8,1.3,2.8,1.8C257.3,10,257.2,10.1,256.8,10.6z M264.4,16.9
				c-0.6,0-0.8-0.5-1-1.2c-1-3.8-2.6-5.9-4-7.4c4.1,1.8,6.1,5.1,6.1,7C265.4,15.6,265.4,16.9,264.4,16.9z"/>
			<path class="st0" d="M280.4,18.8c-0.8,0.4-4,0.5-5,0.5c-5,0-5.1-1.6-5.1-5.5c0-0.7,0-5.2,0-5.5c-0.1-0.8-0.4-1.2-1.5-1.6
				c0.2-0.2,0.7-0.7,1.3-0.7c0.7,0,2.6,0.9,2.6,1.7c0,0.2-0.4,0.9-0.4,1c-0.1,0.3-0.1,0.5-0.1,1.1c0,0.5-0.1,2.7-0.2,3.1
				c2.9-1.3,5.3-3.5,5.3-4c0-0.4-0.5-0.7-0.8-0.9c0.2-0.1,0.4-0.1,0.7-0.1c1.5,0,2.7,1.7,2.7,2.1c0,0.4-0.2,0.5-1,0.7
				c-0.3,0.1-0.5,0.2-0.7,0.3c-2,1-4.2,1.9-6.2,2.3c-0.1,3.9-0.1,4.2,2.7,4.2c0.6,0,2.2,0,3.3-0.5c0.3-0.1,0.5-0.2,0.8-0.2
				c0.1,0,2.3,0.2,2.3,1.2C280.9,18.4,280.6,18.6,280.4,18.8z M280.3,7.6c-0.3,0-0.4-0.1-1-0.7c-0.8-0.9-1.1-1.2-2-1.7
				c0.4,0,1.5,0,2.3,0.3c1.1,0.5,1.2,1.2,1.2,1.4C280.9,7.1,280.7,7.6,280.3,7.6z M282.1,6.4c-0.3,0-0.5-0.1-1.1-0.8
				c-0.5-0.5-0.9-1.1-2-1.5c0.3-0.1,0.4-0.1,0.7-0.1c0.3,0,3,0.1,3,1.7C282.7,6.1,282.5,6.4,282.1,6.4z"/>
			<path class="st0" d="M298.5,13.5c-0.3,0-0.8,0-0.8,0c-1.1-0.1-3.5-0.1-4.8-0.1c-0.2,0-3.8,0.1-5.1,0.4c-0.5,0.1-0.5,0.2-0.7,0.2
				c-0.6,0-1.7-1.5-1.7-2.5c0-0.4,0.3-1,0.4-1.3c0.6,1.5,0.9,1.6,3,1.6c1.1,0,7.5-0.1,8-0.2c0.1-0.1,0.6-0.2,0.7-0.2
				c0.7,0,2.3,0.3,2.3,1.3C299.6,13.2,299.1,13.5,298.5,13.5z"/>
			<path class="st0" d="M317.8,12.1c-0.2,0-3.2-0.3-3.8-0.3c-0.1,0-0.8,0-1.8,0.1c-0.2,2.1-0.6,6.8-5.8,8.8l-0.1-0.1
				c2.4-2.1,3.8-5.2,4.1-8.5c-2.8,0.5-3.4,0.7-4.2,1.1c-0.6,0.2-0.7,0.3-0.8,0.3c-0.6,0-1.9-1-1.9-2.3c0-0.4,0.1-0.6,0.1-0.8
				c0.4,0.6,0.9,1.3,1.9,1.3c0.3,0,2.3-0.3,5-0.6c0-1.8-0.3-2.2-0.5-2.6c-1.4,0.3-3.1,0.4-4.5,0.4l0-0.2c1.7-0.3,4.5-1.3,6.6-2.6
				c0.2-0.1,0.3-0.2,0.3-0.4c0-0.1,0-0.2-0.4-0.6c0.2,0,0.4,0,0.6,0c1.5,0,2.6,1.5,2.6,1.8c0,0.4-0.4,0.5-1,0.5
				c-0.3,0-1.3,0.3-1.7,0.4c-0.5,0.1-0.7,0.2-1,0.3c0.6,0.3,1.2,0.6,1.2,0.9c0,0.1-0.2,0.5-0.3,0.6c-0.1,0.3-0.2,0.5-0.2,1.3
				c0.5-0.1,2.8-0.3,3.1-0.4c0.1,0,0.7-0.3,0.8-0.3c0.5,0,2.2,0.7,2.2,1.4C318.5,11.5,318.5,12.1,317.8,12.1z"/>
			<path class="st0" d="M326.1,18.8c-0.4,0.2-0.4,0.3-0.7,0.7c-0.2,0.2-0.3,0.2-0.3,0.2c-0.5,0-1.7-2-1.7-2.3c0-0.2,0.3-0.8,0.3-0.9
				c0.1-0.4,0.1-2.3,0.1-3.4c0-0.5,0-5.3-0.2-5.7c-0.1-0.4-0.5-0.6-1.6-0.9c0.5-0.3,1-0.6,1.5-0.6c0.7,0,2.5,0.7,2.5,1.3
				c0,0.2-0.3,1-0.4,1.2c-0.2,0.9-0.4,5.5-0.4,7c0,0.5,0,0.9,0,1.3c4.7-2,8.6-5.9,9.2-6.7l0.1,0.1C332.7,14.6,330.1,16.2,326.1,18.8
				z"/>
			<path class="st0" d="M341.9,12.9c-0.4,0-0.7-0.2-1.4-0.8c-0.2-0.1-1.2-1.1-3-1.8c0.5-0.1,1.2-0.2,2-0.2c1.9,0,3.2,0.8,3.2,1.9
				C342.8,12.4,342.4,12.9,341.9,12.9z M342.4,19.2c-0.2,0.2-0.3,0.3-0.5,0.5c-0.3,0.3-0.3,0.4-0.6,0.4c-0.6,0-2.1-1.5-2.1-3
				c0-0.2,0-0.4,0.1-0.6c0.1,0.2,0.8,1.1,1.4,1.1c0.2,0,0.4,0,0.7-0.2c2.9-1.8,6.6-4.8,9.4-8.6l0.1,0.1
				C348.9,14,346.2,16.1,342.4,19.2z M343.3,8.5c-0.4,0-0.7-0.2-1.3-0.9c-0.3-0.3-1.5-1.3-2.7-1.9c0.5-0.1,0.7-0.2,1.3-0.2
				c1.8,0,3.6,0.7,3.6,2.1C344.1,8.2,343.7,8.5,343.3,8.5z M349.9,8.4c-0.3,0-0.4-0.1-1-0.8c-0.1-0.2-0.9-1-1.9-1.7
				c2.9-0.1,3.5,1.2,3.5,1.7C350.5,8.1,350.2,8.4,349.9,8.4z M351.4,6.7c-0.3,0-0.3-0.1-0.9-0.7c-0.2-0.2-0.9-1-2-1.5
				c0.2,0,0.4,0,0.7,0c0.2,0,2.9,0,2.9,1.5C352,6.4,351.7,6.7,351.4,6.7z"/>
			<path class="st0" d="M367.9,11.6c-0.2,0-0.4,0-1.2-0.1c-0.7-0.1-1.3-0.2-2.2-0.2c-0.3,0-1.1,0-2.4,0.1c1,0.7,1.1,0.8,1.1,0.9
				c0,0.1,0,0.2-0.3,0.4c-0.1,0.1-0.2,0.3-0.3,0.7c-2,5.6-4.8,6.7-6.1,7.2l-0.1-0.2c3-2.3,4.3-7.2,4.3-8c0-0.5-0.1-0.7-0.3-0.9
				c-0.9,0.1-2.4,0.4-3.1,0.7c-0.7,0.4-0.8,0.4-1.1,0.4c-0.5,0-1.8-1.2-1.8-2.4c0-0.4,0.1-0.6,0.1-0.8c0.6,1.1,1.2,1.3,1.9,1.3
				c0.5,0,3.8-0.4,4.5-0.5c0.7-0.1,3.7-0.3,4.2-0.5c0.8-0.3,0.9-0.3,1.1-0.3c0.3,0,2,0.6,2,1.5C368.6,11.6,368,11.6,367.9,11.6z
				 M363.9,7.7c-1.1,0-2.4,0.2-4.2,0.4c-0.3,0-0.6,0.1-0.9,0.1c-1,0-1.5-1.3-1.5-2c0-0.1,0-0.2,0.1-0.4c0.5,0.7,1.3,0.8,1.8,0.8
				c1,0,2.7-0.2,3.6-0.5c0.9-0.3,0.9-0.3,1.1-0.3c0.5,0,1.6,0.3,1.6,1C365.5,7.6,365,7.6,363.9,7.7z M368.6,9.4
				c-0.2,0-0.3-0.1-0.8-0.7c-0.9-1.1-1.5-1.6-1.8-1.7c1.3,0,3.2,0.3,3.2,1.7C369.2,9.2,368.9,9.4,368.6,9.4z M370,8.1
				c-0.2,0-0.3-0.1-0.7-0.6c-0.8-1-1.1-1.2-2-1.8c1.4,0.1,3.3,0.3,3.3,1.7C370.5,7.5,370.5,8.1,370,8.1z"/>
			<path class="st0" d="M377.2,9.6c-0.4,0-0.5-0.2-1.3-1.1c-0.9-1-1.8-1.8-2.9-2.3c0.4-0.1,0.8-0.2,1.4-0.2c1,0,3.8,0.3,3.8,2.4
				C378.2,9.2,377.7,9.6,377.2,9.6z M380,15.6c-0.5,0.5-3.3,2.7-3.4,2.8c-0.5,0.6-0.6,0.6-0.8,0.6c-0.8,0-2.3-1.8-2.3-3.1
				c0-0.4,0.1-0.7,0.2-0.9c0.8,1.3,1.4,1.4,1.5,1.4c0.5,0,3.1-1.8,4.6-3c2.2-1.7,4.3-3.9,5.8-5.8l0.1,0.1
				C385.1,9.5,383.3,12.8,380,15.6z"/>
			<path class="st0" d="M400.7,19.4c-0.5,0-0.7-0.4-0.9-0.7c-1.6-2.7-2.2-3.8-3.7-5.1c-2.2,2.9-5,5.3-8.5,6l0-0.2
				c4.7-2.4,8.9-9.1,9.6-11.6c-1.1,0.2-3.6,0.8-4.4,1.3c-0.8,0.4-0.9,0.5-1,0.5c-0.5,0-1.5-1.1-1.5-2.3c0-0.4,0-0.7,0.2-1
				c0.6,1,1,1.3,1.7,1.3c0.7,0,4.8-0.5,5.2-0.8c0.1-0.1,0.5-0.5,0.5-0.5c0.1-0.1,0.1-0.1,0.2-0.1c0.2,0,1.9,1.4,1.9,1.8
				c0,0.2-0.1,0.3-0.4,0.5c-0.3,0.2-0.5,0.2-0.6,0.6c-0.9,1.8-1.4,2.7-2.6,4.3c2.2,0.8,3.7,2.1,4.4,2.8c0.5,0.5,1,1.1,1,2
				C401.7,18.8,401.3,19.4,400.7,19.4z"/>
		</g>
	</g>
	<g>
		<g>
			<g>
				<g>
					<g>
						<path class="st0" d="M132.2,9.7c-2.9-0.3-6-0.7-6-3.1c0-0.7,0.6-2.6,5.8-2.6c5.1,0,5.6,2.5,6,3.6c0.6,0,1.5,0,1.5,0s0-3,0-4.4
							c-1.6-0.6-5.4-1.2-8.1-1.2c-5.4,0-8.7,2-8.7,6c0,5.1,5.2,5.6,8.9,6.1c3.1,0.4,6.1,1,6.1,2.8c0,2.3-3.2,3.3-6.7,3.3
							c-3.5,0-6.6-1.1-7-5.4c-0.4,0-1.6,0-1.6,0v5.8c1.5,1,6.3,1.6,8.8,1.6c8.2,0,9.8-3.4,9.8-6.6C140.9,11,135.8,10.2,132.2,9.7z"
							/>
						<path class="st0" d="M95.6,19.7c0,0.3-0.2,0.5-0.5,0.5h-2.8V22h11.5v-1.8H101c-0.3,0-0.5-0.2-0.5-0.5V4.8
							c0-0.3,0.2-0.5,0.5-0.5h2.8V2.5l-8.5,0L89,17.1L82.7,2.5l-8,0v1.8h2.7c0.3,0,0.5,0.2,0.5,0.5v14.9c0,0.3-0.2,0.5-0.5,0.5h-2.7
							V22h8.7v-1.8h-2.7c-0.3,0-0.5-0.2-0.5-0.5V7.2L86.7,22h2.5l6.4-14.9V19.7z"/>
						<path class="st0" d="M147.7,20.3V22h11.4v-1.8h-2.8c-0.3,0-0.5-0.2-0.5-0.5V5.2c0-0.3,0.2-0.5,0.5-0.5c0,0,4.1,0,4.2,0
							c0.3,0,0.5,0.1,0.6,0.4c0.1,0.4,0.6,3,0.6,3h2.1V2.5h-20.7v5.6h2.1c0,0,0.5-2.6,0.6-3c0.1-0.3,0.3-0.4,0.6-0.4
							c0,0,4.2,0,4.2,0c0.3,0,0.5,0.2,0.5,0.5v14.6c0,0.3-0.2,0.5-0.5,0.5H147.7z"/>
						<path class="st0" d="M14.1,2.5c-1.2,0-14.1,0-14.1,0v1.8h2.8c0.3,0,0.5,0.2,0.5,0.5v14.9c0,0.3-0.2,0.5-0.5,0.5H0V22h11.4
							v-1.8H8.7c-0.3,0-0.5-0.2-0.5-0.5v-6c2.3,0,4.9,0,5.6,0c6.5,0,8.5-2.9,8.5-5.6C22.2,5.4,20.5,2.5,14.1,2.5z M8.1,11.8V4.4
							c6.8-0.8,9,1.2,9,3.7C17.1,10.6,15,12.6,8.1,11.8z"/>
						<path class="st0" d="M118.9,22v-1.8h-2.8c-0.3,0-0.5-0.2-0.5-0.5V4.8c0-0.3,0.2-0.5,0.5-0.5h2.8V2.5h-11.4v1.8h2.8
							c0.3,0,0.5,0.2,0.5,0.5v14.9c0,0.3-0.2,0.5-0.5,0.5h-2.8V22H118.9z"/>
						<path class="st0" d="M68.9,16.4c0,0-0.5,2.4-0.6,3.1c0,0.3-0.4,0.4-0.6,0.4c-0.1,0-5,0-9.5,0v-7.1c2.9,0,6.5,0,6.6,0
							c0.3,0,0.5,0.2,0.6,0.4c0.1,0.1,0.3,1.1,0.3,1.1h1.7V9.2h-1.7c0,0-0.2,0.9-0.3,1.1c-0.1,0.2-0.3,0.4-0.6,0.4
							c-0.1,0-3.8,0-6.6,0V4.6c4.4,0,9.3,0,9.3,0c0.3,0,0.5,0.1,0.6,0.4c0.1,0.3,0.6,1.9,0.6,1.9h1.8V2.5H50.1v1.8h2.8
							c0.3,0,0.5,0.2,0.5,0.5v14.9c0,0.3-0.2,0.5-0.5,0.5c0,0-4.7,0-4.8,0c-0.4,0-0.8-0.2-1.1-0.6c-0.9-1.2-3-4.1-4.3-5.9
							c-0.3-0.4-0.7-0.7-1.2-0.9c3.3-0.9,4.3-2.9,4.3-5c0-2.7-1.4-5.4-7.8-5.4c-0.7,0-14.1,0-14.1,0v1.8h2.8c0.3,0,0.5,0.2,0.5,0.5
							v14.9c0,0.3-0.2,0.5-0.5,0.5h-2.8V22h11.4v-1.8h-2.8c-0.3,0-0.5-0.2-0.5-0.5l0-6.4c1.2,0,2.5,0,3.5,0c1.2,0,2,0.4,2.4,1
							c1.6,2.4,5,7.7,5,7.7H71v-5.6H68.9z M31.9,11.4v-7c6.8-0.8,8.6,1,8.6,3.5C40.6,10.4,38.8,12.2,31.9,11.4z"/>
					</g>
				</g>
			</g>
		</g>
	</g>
</g>
<g>
	<path class="st0" d="M423.9,3.1C423.9,3,424,3,424,3c0.5,0.3,1.1,0.7,1.6,1.2c0.1,0.1,0.1,0.1,0,0.2l-0.2,0.3
		c-0.1,0.1-0.1,0.1-0.2,0.1c-0.5-0.5-1-0.9-1.6-1.2c-0.1,0-0.1-0.1,0-0.1L423.9,3.1z M424.7,9.2c-0.1,0.2-0.2,0.4-0.2,0.5
		c0,0.1-0.1,0.1-0.1,0.1c0,0-0.1,0-0.2-0.1c-0.2-0.1-0.3-0.2-0.5-0.4c0.2-0.2,0.3-0.4,0.5-0.8c0.3-0.5,0.7-1.5,1.1-2.6
		c0.1,0.1,0.2,0.2,0.3,0.3c0.2,0.1,0.2,0.1,0.1,0.3C425.4,7.5,425,8.5,424.7,9.2z M424.4,0.3c0.1-0.1,0.1-0.1,0.2-0.1
		c0.5,0.4,1,0.8,1.5,1.2c0.1,0.1,0,0.1,0,0.2L425.8,2c-0.1,0.1-0.1,0.1-0.2,0.1c-0.4-0.5-1-1-1.4-1.3c-0.1-0.1-0.1-0.1,0-0.2
		L424.4,0.3z M432.9,4.9c0,1.7,0,1.9,0,2c0,0.1,0,0.1-0.1,0.1h-0.5c-0.1,0-0.1,0-0.1-0.1V6.3h-2.3V8c0,1.3,0,1.9,0,2
		c0,0.1,0,0.1-0.1,0.1h-0.5c-0.1,0-0.1,0-0.1-0.1c0-0.1,0-0.6,0-1.9V6.3h-2.1v0.6c0,0.1,0,0.1-0.1,0.1h-0.5c-0.1,0-0.1,0-0.1-0.1
		c0-0.1,0-0.3,0-2v-1c0-1,0-1.3,0-1.4c0-0.1,0-0.1,0.1-0.1c0.1,0,0.4,0,1.5,0h1.1V1.6c0-0.8,0-1.1-0.1-1.5c0.3,0,0.5,0,0.7,0.1
		c0.1,0,0.1,0.1,0.1,0.1c0,0.1,0,0.1-0.1,0.2c0,0.1-0.1,0.4-0.1,1.1v0.9h1.4c1.1,0,1.5,0,1.5,0c0.1,0,0.1,0,0.1,0.1
		c0,0.1,0,0.4,0,1.2V4.9z M429.3,3.1h-2.1v2.7h2.1V3.1z M432.2,3.1h-2.3v2.7h2.3V3.1z"/>
	<path class="st0" d="M435.7,6.6c0,0.1,0,0.2-0.1,0.4c-0.1,0.7-0.2,1.3-0.5,2c0,0.1-0.1,0.2-0.1,0.2c0,0-0.1,0-0.2-0.1
		c-0.1-0.1-0.2-0.1-0.4-0.2c0.3-0.7,0.4-1.3,0.5-2.1c0-0.2,0-0.4,0-0.6c0.2,0,0.4,0.1,0.5,0.1c0.1,0,0.1,0.1,0.1,0.1
		C435.8,6.5,435.8,6.6,435.7,6.6z M437.6,3.8c0.1,0,0.1,0,0.2,0c0.3,0.5,0.5,1.2,0.7,1.7c0,0.1,0,0.1-0.1,0.1l-0.2,0.1
		c-0.1,0-0.2,0-0.2,0l-0.2-0.6c-0.3,0-0.6,0.1-0.9,0.1v3c0,1.2,0,1.6,0,1.6c0,0.1,0,0.1-0.1,0.1h-0.5c-0.1,0-0.1,0-0.1-0.1
		c0-0.1,0-0.4,0-1.6V5.4c-0.3,0-0.6,0.1-0.9,0.1c-0.3,0-0.4,0.1-0.4,0.1c0,0-0.1,0-0.1,0c0,0-0.1-0.1-0.1-0.1c0-0.2-0.1-0.4-0.1-0.6
		c0.3,0,0.5,0,0.7,0h0.1c0.3-0.4,0.6-0.8,0.8-1.2c-0.5-0.6-0.9-1.1-1.5-1.6c-0.1-0.1-0.1-0.1,0-0.2l0.2-0.2c0.1-0.1,0.1-0.1,0.2,0
		l0.3,0.3c0.3-0.4,0.5-0.8,0.7-1.3c0.1-0.3,0.2-0.5,0.2-0.7c0.2,0.1,0.4,0.2,0.6,0.2c0.1,0,0.1,0.1,0.1,0.1c0,0.1,0,0.1-0.1,0.1
		c-0.1,0-0.1,0.1-0.2,0.2c-0.4,0.6-0.6,1.1-1,1.6c0.2,0.3,0.5,0.5,0.7,0.8c0.3-0.4,0.5-0.9,0.8-1.3c0.1-0.3,0.3-0.5,0.3-0.7
		c0.2,0.1,0.4,0.2,0.6,0.3c0.1,0,0.1,0.1,0.1,0.1c0,0.1,0,0.1-0.1,0.1c-0.1,0.1-0.2,0.2-0.4,0.5c-0.6,1-1.2,1.8-1.8,2.7
		c0.6,0,1.1-0.1,1.6-0.1c-0.1-0.3-0.2-0.5-0.3-0.7c0-0.1,0-0.1,0.1-0.2L437.6,3.8z M437.7,6.3c0.1,0,0.1,0,0.2,0
		c0.2,0.5,0.4,1.4,0.5,2c0,0.1,0,0.1-0.1,0.2L438,8.5c-0.2,0.1-0.2,0.1-0.2,0c-0.1-0.7-0.2-1.4-0.4-2c0-0.1,0-0.1,0.1-0.1L437.7,6.3
		z M441.6,8.6c0,0.5,0.1,0.6,0.3,0.6c0.2,0,0.4,0.1,0.8,0.1c0.6,0,0.9,0,1.1-0.2c0.3-0.1,0.3-0.3,0.4-1.1c0.1,0.1,0.2,0.2,0.4,0.2
		c0.2,0.1,0.2,0.1,0.2,0.3c-0.1,0.8-0.2,0.9-0.5,1.1c-0.3,0.2-0.7,0.2-1.4,0.2c-0.6,0-0.9,0-1.2-0.1c-0.4-0.1-0.6-0.3-0.6-1V8h-1.7
		v0.5c0,0.1,0,0.1-0.1,0.1h-0.4c-0.1,0-0.1,0-0.1-0.1c0-0.1,0-0.3,0-1.1V5.8c0-0.7,0-1,0-1.1c0-0.1,0-0.1,0.1-0.1c0.1,0,0.5,0,1.5,0
		h0.7V3.8h-0.7c-1,0-1.3,0-1.4,0c-0.1,0-0.1,0-0.1-0.1c0-0.1,0-0.3,0-1V1.5c0-0.7,0-0.9,0-1c0-0.1,0-0.1,0.1-0.1c0.1,0,0.4,0,1.4,0
		h2c1,0,1.3,0,1.4,0c0.1,0,0.1,0,0.1,0.1c0,0.1,0,0.3,0,1v1.3c0,0.7,0,0.9,0,1c0,0.1,0,0.1-0.1,0.1c-0.1,0-0.4,0-1.4,0h-0.7v0.8h0.9
		c1,0,1.4,0,1.4,0c0.1,0,0.1,0,0.1,0.1c0,0.1,0,0.3,0,1v1.2c0,0.7,0,1,0,1c0,0.1,0,0.1-0.1,0.1c-0.1,0-0.4,0-1.4,0h-0.9V8.6z
		 M441.1,5.1h-1.7v1h1.7V5.1z M441.1,6.5h-1.7v1h1.7V6.5z M441.1,0.9h-1.5v1h1.5V0.9z M441.1,2.3h-1.5v1h1.5V2.3z M443.2,0.9h-1.6v1
		h1.6V0.9z M443.2,2.3h-1.6v1h1.6V2.3z M443.4,5.1h-1.8v1h1.8V5.1z M443.4,6.5h-1.8v1h1.8V6.5z"/>
	<path class="st0" d="M449.3,7.9c-0.1,0-0.2,0.1-0.3,0.2c-0.5,0.5-1.2,1-2,1.4c-0.1,0-0.1,0.1-0.2,0.1c-0.1,0-0.1-0.1-0.2-0.2
		c-0.1-0.2-0.2-0.3-0.4-0.3c0.8-0.3,1.6-0.9,2-1.3c0.2-0.2,0.3-0.3,0.4-0.5c0.2,0.1,0.4,0.2,0.5,0.3c0.1,0.1,0.1,0.1,0.1,0.2
		C449.5,7.8,449.4,7.9,449.3,7.9z M455.6,6.8C455.6,6.9,455.6,6.9,455.6,6.8c-0.1,0.1-0.5,0.1-1.6,0.1h-2.7v1.7c0,0.9,0,1.2,0,1.3
		c0,0.1,0,0.1-0.1,0.1h-0.6c-0.1,0-0.1,0-0.1-0.1c0-0.1,0-0.3,0-1.3V6.8h-2.2c-1.1,0-1.5,0-1.5,0c-0.1,0-0.1,0-0.1-0.1
		c0-0.1,0-0.5,0-1.4v-3c0-0.6,0-0.9-0.1-1.2c0.3,0,0.5,0,0.7,0.1c0.1,0,0.1,0,0.1,0.1c0,0.1,0,0.1-0.1,0.2c0,0.1-0.1,0.3-0.1,0.8
		v3.9h6.5c1.1,0,1.5,0,1.5,0c0.1,0,0.1,0,0.1,0.1V6.8z M454.2,4.1c0,0.8,0,1.1,0,1.2c0,0.1-0.1,0.1-0.1,0.1c-0.1,0-0.4,0-1.4,0h-2.2
		c-1,0-1.3,0-1.4,0c-0.1,0-0.1,0-0.1-0.1c0-0.1,0-0.4,0-1.2V1.8c0-0.8,0-1.1,0-1.2c0-0.1,0-0.1,0.1-0.1c0.1,0,0.4,0,1.4,0h2.3
		c1,0,1.3,0,1.4,0c0.1,0,0.1,0,0.1,0.1c0,0.1,0,0.4,0,1.2V4.1z M453.6,1h-3.9v0.9h3.9V1z M453.6,2.4h-3.9v0.9h3.9V2.4z M453.6,3.8
		h-3.9v1h3.9V3.8z M452.8,7.4c0.1-0.1,0.1-0.1,0.2,0c0.7,0.7,1.5,1.3,2.5,1.7c-0.1,0.1-0.2,0.2-0.3,0.4c-0.1,0.1-0.1,0.2-0.2,0.2
		c0,0-0.1,0-0.2-0.1c-0.9-0.5-1.7-1.1-2.3-1.8c-0.1-0.1,0-0.1,0.1-0.2L452.8,7.4z"/>
	<path class="st0" d="M466.1,4.8c0,1.7,0,2,0,2.1c0,0.1,0,0.1-0.1,0.1h-0.5c-0.1,0-0.1,0-0.1-0.1V6.3h-3.1v1.6c0,1.3,0,1.9,0,2
		c0,0.1,0,0.1-0.1,0.1h-0.6c-0.1,0-0.1,0-0.1-0.1c0-0.1,0-0.6,0-2V6.3h-2.9v0.6c0,0.1,0,0.1-0.1,0.1h-0.5c-0.1,0-0.1,0-0.1-0.1
		c0-0.1,0-0.3,0-2.1v-1c0-1,0-1.3,0-1.4c0-0.1,0-0.1,0.1-0.1c0.1,0,0.5,0,1.6,0h2V1.4c0-0.7,0-1-0.1-1.4c0.3,0,0.5,0,0.8,0.1
		c0.1,0,0.1,0.1,0.1,0.1c0,0.1,0,0.1-0.1,0.2c0,0.1-0.1,0.4-0.1,1v0.9h2.2c1.1,0,1.5,0,1.6,0c0.1,0,0.1,0,0.1,0.1c0,0.1,0,0.4,0,1.2
		V4.8z M461.7,2.9h-2.9v2.7h2.9V2.9z M465.5,2.9h-3.1v2.7h3.1V2.9z"/>
	<path class="st0" d="M472.8,7.7c0,0.2,0,0.2-0.2,0.3c-1,0.4-2.2,0.8-3.4,1c-0.2,0.1-0.4,0.1-0.4,0.2s-0.1,0.1-0.1,0.1
		c-0.1,0-0.1,0-0.1-0.1c-0.1-0.2-0.2-0.4-0.2-0.6c0.3,0,0.6-0.1,1-0.2c0.4-0.1,0.9-0.2,1.5-0.4c0.2-0.5,0.4-0.8,0.6-1.4
		c0.1-0.2,0.1-0.5,0.2-0.7c0.2,0.1,0.4,0.1,0.6,0.2c0.1,0,0.1,0.1,0.1,0.1c0,0.1,0,0.1-0.1,0.1c-0.1,0.1-0.1,0.1-0.3,0.5
		c-0.1,0.3-0.3,0.6-0.5,1c0.5-0.2,1-0.3,1.4-0.5C472.8,7.4,472.8,7.5,472.8,7.7z M472.6,1.1C472.6,1.2,472.6,1.2,472.6,1.1
		c-0.1,0.1-0.4,0.1-1.3,0.1h-1.5c-0.9,0-1.2,0-1.2,0c-0.1,0-0.1,0-0.1-0.1V0.6c0-0.1,0-0.1,0.1-0.1c0.1,0,0.3,0,1.2,0h1.5
		c0.9,0,1.2,0,1.2,0c0.1,0,0.1,0,0.1,0.1V1.1z M472.3,4.3c0,0.6,0,0.9,0,0.9c0,0.1,0,0.1-0.1,0.1c-0.1,0-0.3,0-1.1,0h-1.1
		c-0.7,0-1,0-1,0c-0.1,0-0.1,0-0.1-0.1c0-0.1,0-0.3,0-0.9V3.3c0-0.6,0-0.8,0-0.9c0-0.1,0-0.1,0.1-0.1c0.1,0,0.3,0,1,0h1.1
		c0.7,0,1,0,1.1,0c0.1,0,0.1,0,0.1,0.1c0,0.1,0,0.3,0,0.9V4.3z M469.5,6c0.1,0,0.1,0,0.2,0c0.3,0.4,0.4,0.9,0.6,1.4
		c0,0.1,0,0.1-0.1,0.2l-0.3,0.1c-0.2,0.1-0.2,0.1-0.2,0c-0.1-0.5-0.3-0.9-0.5-1.4c0-0.1,0-0.1,0.1-0.1L469.5,6z M471.7,2.8h-2.1v1.9
		h2.1V2.8z M474.6,8.6c-0.1,0-0.2,0.1-0.3,0.2c-0.5,0.4-1.2,0.9-1.9,1.2c-0.1,0-0.1,0.1-0.2,0.1c-0.1,0-0.1,0-0.2-0.2
		c-0.1-0.1-0.2-0.2-0.3-0.3c0.9-0.3,1.4-0.6,2-1.1c0.1-0.1,0.2-0.2,0.3-0.4c0.2,0.1,0.3,0.2,0.5,0.3c0.1,0.1,0.1,0.1,0.1,0.1
		S474.7,8.6,474.6,8.6z M478.2,1.1C478.2,1.2,478.2,1.2,478.2,1.1c-0.1,0.1-0.5,0.1-1.5,0.1h-1c-0.1,0.4-0.3,0.8-0.4,1.1h0.9
		c0.9,0,1.2,0,1.2,0c0.1,0,0.1,0,0.1,0.1c0,0.1,0,0.4,0,1.3v2.8c0,0.9,0,1.2,0,1.3c0,0.1,0,0.1-0.1,0.1c-0.1,0-0.4,0-1.2,0h-1.6
		c-0.9,0-1.2,0-1.3,0c-0.1,0-0.1,0-0.1-0.1c0-0.1,0-0.4,0-1.3V3.6c0-0.9,0-1.3,0-1.3c0-0.1,0-0.1,0.1-0.1c0.1,0,0.4,0,1.3,0h0
		c0.2-0.4,0.3-0.7,0.4-1.1h-0.6c-1,0-1.3,0-1.4,0c-0.1,0-0.1,0-0.1-0.1V0.6c0-0.1,0-0.1,0.1-0.1c0.1,0,0.4,0,1.4,0h2.3
		c1,0,1.3,0,1.4,0s0.1,0,0.1,0.1V1.1z M476.9,2.8H474v1.1h2.9V2.8z M476.9,4.4H474v1.1h2.9V4.4z M476.9,6H474v1.2h2.9V6z M476.3,8.1
		c0.1-0.1,0.1-0.1,0.2,0c0.6,0.6,1.4,1,2,1.3c-0.1,0.1-0.2,0.2-0.3,0.4c-0.1,0.1-0.1,0.2-0.2,0.2c0,0-0.1,0-0.2-0.1
		c-0.7-0.4-1.3-0.8-1.8-1.3c-0.1-0.1,0-0.1,0.1-0.2L476.3,8.1z"/>
	<path class="st0" d="M485.3,3C485.3,3.1,485.3,3.1,485.3,3c-0.1,0.1-0.3,0.1-0.8,0.1v0.6c0,0.8,0,1.1,0,1.2c0,0.1,0,0.1-0.1,0.1
		c-0.1,0-0.4,0-1.4,0h-1.2c-0.1,0.4-0.2,0.7-0.4,1.1h2c0.7,0,1,0,1.1,0c0.1,0,0.1,0,0.1,0.1c0,0.1,0,0.3,0,1.1V8c0,1.3,0,1.6,0,1.6
		c0,0.1,0,0.1-0.1,0.1h-0.5c-0.1,0-0.1,0-0.1-0.1V9.1h-2.3v0.6c0,0.1,0,0.1-0.1,0.1h-0.5c-0.1,0-0.1,0-0.1-0.1c0-0.1,0-0.3,0-1.6
		V6.8c-0.3,0.5-0.6,1-1.1,1.5c-0.1,0.1-0.1,0.1-0.1,0.1c0,0-0.1,0-0.1-0.1c-0.1-0.2-0.2-0.3-0.3-0.4c0.9-0.9,1.5-1.9,1.8-3
		c-0.8,0-1,0-1.1,0c-0.1,0-0.1,0-0.1-0.1V4.5c0-0.1,0-0.1,0.1-0.1c0.1,0,0.3,0,1.2,0h0.1c0.1-0.4,0.2-0.9,0.2-1.3h-0.5
		c-1.1,0-1.4,0-1.5,0c-0.1,0-0.1,0-0.1-0.1V2.6c0-0.1,0-0.1,0.1-0.1c0.1,0,0.4,0,1.5,0h0.6c0-0.4,0-0.9,0-1.3h-0.2
		c-0.9,0-1.2,0-1.2,0c-0.1,0-0.1,0-0.1-0.1V0.7c0-0.1,0-0.1,0.1-0.1c0.1,0,0.3,0,1.2,0h1.5c0.9,0,1.3,0,1.4,0c0.1,0,0.1,0,0.1,0.1
		c0,0.1,0,0.4,0,1.2v0.6c0.5,0,0.7,0,0.7,0c0.1,0,0.1,0,0.1,0.1V3z M484,6.6h-2.3v1.9h2.3V6.6z M483.9,3.1h-1.6
		c-0.1,0.5-0.1,0.9-0.2,1.3h1.8V3.1z M483.9,1.2h-1.5c0,0.5,0,0.9-0.1,1.3h1.6V1.2z M488.4,0.6c0.1,0,0.3,0,0.3,0c0,0,0.1,0,0.1,0
		c0.1,0,0.1,0,0.3,0.2c0.2,0.2,0.2,0.2,0.2,0.3c0,0.1,0,0.1-0.1,0.1c-0.1,0-0.1,0.1-0.2,0.4c-0.4,0.9-0.9,1.8-1.4,2.6
		c1.4,1.1,1.7,1.8,1.7,2.6c0,1-0.7,1.6-2.1,1.7c-0.2,0-0.2,0-0.3-0.2c0-0.2-0.1-0.3-0.2-0.4c1.2,0,1.9-0.3,1.9-1.1
		c0-0.7-0.3-1.2-1.8-2.4c0.6-1,1.1-1.9,1.5-3.1h-2v6.4c0,1.5,0,2.2,0,2.2c0,0.1,0,0.1-0.1,0.1h-0.5c-0.1,0-0.1,0-0.1-0.1
		s0-0.7,0-2.2V2.9c0-1.5,0-2.2,0-2.2c0-0.1,0-0.1,0.1-0.1c0.1,0,0.3,0,1,0H488.4z"/>
	<path class="st0" d="M496.1,2.2c-0.2,1.9-0.8,3.7-1.5,4.8c-0.5,0.8-1,1.1-1.6,1.1c-0.8,0-1.6-0.9-1.6-2.5c0-1,0.5-2.1,1.3-2.8
		c0.8-0.8,1.9-1.2,3.3-1.2c2.5,0,3.9,1.4,3.9,3.5c0,1.8-1.1,3.2-3.5,3.8c-0.1,0-0.2,0-0.3-0.1c-0.1-0.1-0.2-0.3-0.4-0.4
		c2.2-0.4,3.4-1.6,3.4-3.4c0-1.6-1.3-2.8-2.8-2.8H496.1z M493.2,3.3c-0.7,0.7-1.1,1.6-1.1,2.4c0,1.2,0.5,1.7,0.9,1.7
		c0.4,0,0.7-0.2,1-0.8c0.6-1,1.1-2.7,1.3-4.3C494.5,2.4,493.8,2.8,493.2,3.3z"/>
	<path class="st0" d="M506.1,0.8c-0.1,0.1-0.2,0.1-0.2,0.2c-0.9,1.8-1.9,3-3.5,4.1c-0.1,0.1-0.1,0.1-0.2,0.1c0,0-0.1,0-0.2-0.1
		c-0.1-0.2-0.3-0.3-0.4-0.4c1.6-1,2.8-2.5,3.4-3.8c0.1-0.2,0.1-0.4,0.2-0.6c0.2,0.1,0.5,0.2,0.7,0.3c0.1,0,0.1,0.1,0.1,0.2
		C506.2,0.7,506.2,0.8,506.1,0.8z M508.2,4.4c1.1,0,1.4,0,1.5,0c0.1,0,0.1,0,0.1,0.1c0,0.3,0,0.7,0,1.2c0,0.9-0.1,1.7-0.3,2.8
		c-0.1,0.7-0.5,1.3-1.4,1.3c-0.4,0-0.6,0-0.9,0c-0.2,0-0.2,0-0.3-0.3c0-0.2-0.1-0.4-0.2-0.5c0.5,0.1,0.8,0.1,1.3,0.1
		c0.5,0,0.7-0.2,0.8-0.8c0.1-0.8,0.2-1.7,0.2-3.1h-2.5c-0.2,2.3-1.3,3.9-3.3,4.8c-0.1,0-0.1,0.1-0.2,0.1c-0.1,0-0.1,0-0.2-0.2
		c-0.1-0.1-0.2-0.3-0.4-0.4c2-0.8,3.1-2.2,3.3-4.3h-0.5c-1.1,0-1.4,0-1.5,0c-0.1,0-0.1,0-0.1-0.1V4.5c0-0.1,0-0.1,0.1-0.1
		c0.1,0,0.4,0,1.5,0H508.2z M508,0.3c0.1-0.1,0.1-0.1,0.2,0c0.8,1.8,2.1,3.3,3.8,4.3c-0.1,0.1-0.3,0.3-0.4,0.4
		c-0.1,0.1-0.1,0.2-0.1,0.2c0,0-0.1,0-0.2-0.1c-1.7-1.2-2.9-2.8-3.8-4.5c0-0.1,0-0.1,0.1-0.1L508,0.3z"/>
	<path class="st0" d="M516.5,2.6C516.5,2.7,516.5,2.7,516.5,2.6c-0.1,0.1-0.4,0.1-1.2,0.1h-1c-0.8,0-1,0-1.1,0c-0.1,0-0.1,0-0.1-0.1
		V2.1c0-0.1,0-0.1,0.1-0.1c0.1,0,0.3,0,1.1,0h1c0.8,0,1,0,1.1,0c0.1,0,0.1,0,0.1,0.1V2.6z M516.3,1.1C516.3,1.2,516.2,1.2,516.3,1.1
		c-0.1,0.1-0.3,0.1-1,0.1h-0.7c-0.7,0-0.9,0-0.9,0c-0.1,0-0.1,0-0.1-0.1V0.7c0-0.1,0-0.1,0.1-0.1c0.1,0,0.3,0,0.9,0h0.7
		c0.7,0,0.9,0,0.9,0c0.1,0,0.1,0,0.1,0.1V1.1z M516.1,8.1c0,1.3,0,1.5,0,1.5c0,0.1,0,0.1-0.1,0.1h-0.4c-0.1,0-0.1,0-0.1-0.1V9.3
		h-1.4v0.6c0,0.1,0,0.1-0.1,0.1h-0.4c-0.1,0-0.1,0-0.1-0.1c0-0.1,0-0.3,0-1.6V7.6c0-0.7,0-0.9,0-1c0-0.1,0-0.1,0.1-0.1
		c0.1,0,0.3,0,0.9,0h0.6c0.6,0,0.8,0,0.9,0c0.1,0,0.1,0,0.1,0.1c0,0.1,0,0.3,0,0.8V8.1z M516.1,4.1C516.1,4.2,516,4.2,516.1,4.1
		c-0.2,0.1-0.3,0.1-0.9,0.1h-0.6c-0.6,0-0.8,0-0.8,0c-0.1,0-0.1,0-0.1-0.1V3.7c0-0.1,0-0.1,0.1-0.1c0.1,0,0.2,0,0.8,0h0.6
		c0.6,0,0.8,0,0.8,0c0.1,0,0.1,0,0.1,0.1V4.1z M516.1,5.6C516.1,5.7,516,5.7,516.1,5.6c-0.2,0.1-0.3,0.1-0.9,0.1h-0.6
		c-0.6,0-0.8,0-0.8,0c-0.1,0-0.1,0-0.1-0.1V5.2c0-0.1,0-0.1,0.1-0.1c0.1,0,0.2,0,0.8,0h0.6c0.6,0,0.8,0,0.8,0c0.1,0,0.1,0,0.1,0.1
		V5.6z M515.6,7.1h-1.4v1.7h1.4V7.1z M520.2,6.5c0.2,0.5,0.4,0.9,0.7,1.2c0.4-0.2,0.6-0.4,1-0.7c0.1-0.1,0.2-0.2,0.3-0.4
		c0.2,0.1,0.3,0.2,0.5,0.3c0,0,0.1,0.1,0.1,0.1c0,0.1,0,0.1-0.1,0.1c-0.1,0-0.2,0.1-0.4,0.2c-0.4,0.3-0.6,0.4-1,0.7
		c0.5,0.5,1.2,0.9,2.1,1.2c-0.1,0.1-0.2,0.2-0.3,0.4c-0.1,0.2-0.1,0.2-0.3,0.1c-1.7-0.7-2.7-1.9-3.1-3.3h-0.1
		c-0.3,0.3-0.6,0.6-0.9,0.8V9c0.6-0.1,1.2-0.3,1.8-0.6c0,0.1,0,0.2,0,0.4c0,0.2,0,0.2-0.2,0.3c-0.9,0.3-1.9,0.6-2.5,0.7
		c-0.2,0.1-0.4,0.1-0.4,0.1c0,0-0.1,0.1-0.2,0.1c0,0-0.1-0.1-0.1-0.1c-0.1-0.1-0.1-0.3-0.2-0.5c0.3,0,0.6,0,0.9-0.1l0.4-0.1V7.8
		c-0.4,0.2-0.8,0.5-1.3,0.7c-0.1,0.1-0.2,0.1-0.2-0.1c-0.1-0.1-0.2-0.3-0.3-0.4c1.2-0.4,2-0.9,2.6-1.5h-0.7c-1.1,0-1.5,0-1.5,0
		c-0.1,0-0.1,0-0.1-0.1V6.1c0-0.1,0-0.1,0.1-0.1c0,0,0.4,0,1.5,0h0.3V5.2c-0.8,0-1.1,0-1.2,0c-0.1,0-0.1,0-0.1-0.1V4.8
		c0-0.1,0-0.1,0.1-0.1c0,0,0.4,0,1.2,0V4c-1,0-1.3,0-1.4,0c-0.1,0-0.1,0-0.1-0.1V3.6c0-0.1,0-0.1,0.1-0.1c0.1,0,0.4,0,1.4,0v0
		c0-0.3,0-0.5-0.1-0.7c0.2,0,0.4,0,0.6,0.1c0.1,0,0.1,0,0.1,0.1c0,0,0,0.1,0,0.1c0,0.1-0.1,0.2-0.1,0.5h1.4v0c0-0.4,0-0.5-0.1-0.7
		c0.2,0,0.5,0,0.6,0.1c0.1,0,0.1,0,0.1,0.1s0,0.1-0.1,0.1c0,0.1-0.1,0.2-0.1,0.5h0.1c1,0,1.3,0,1.4,0c0.1,0,0.1,0,0.1,0.1v0.3
		c0,0.1,0,0.1-0.1,0.1c-0.1,0-0.4,0-1.4,0H521v0.8c0.9,0,1.2,0,1.2,0s0.1,0,0.1,0.1v0.3c0,0.1,0,0.1-0.1,0.1s-0.4,0-1.2,0v0.9h0.5
		c1.1,0,1.5,0,1.5,0c0.1,0,0.1,0,0.1,0.1v0.3c0,0.1,0,0.1-0.1,0.1c-0.1,0-0.4,0-1.5,0H520.2z M519.2,2.2c-0.1,0-0.2,0.1-0.3,0.1
		c-0.5,0.3-0.9,0.6-1.6,0.8c-0.2,0.1-0.2,0.1-0.3-0.1c-0.1-0.1-0.2-0.2-0.3-0.3c0.8-0.2,1.3-0.5,1.7-0.7c0.1-0.1,0.2-0.2,0.3-0.3
		c0.2,0.1,0.3,0.2,0.5,0.3C519.3,2,519.3,2,519.2,2.2C519.3,2.1,519.2,2.2,519.2,2.2z M523,1.5C523,1.6,523,1.6,523,1.5
		c-0.2,0.1-0.5,0.1-1.6,0.1h-3.1c-1.1,0-1.4,0-1.5,0c-0.1,0-0.1,0-0.1-0.1V1.1c0-0.1,0-0.1,0.1-0.1c0.1,0,0.4,0,1.5,0h1.2V0.8
		c0-0.3,0-0.6-0.1-0.8c0.3,0,0.5,0,0.7,0.1c0.1,0,0.1,0,0.1,0.1c0,0.1,0,0.1-0.1,0.2c0,0.1-0.1,0.2-0.1,0.5V1h1.3c1.1,0,1.4,0,1.5,0
		c0.1,0,0.1,0,0.1,0.1V1.5z M520.4,4H519v0.8h1.4V4z M520.4,5.2H519v0.9h1.4V5.2z M520.7,1.8c0.1-0.1,0.1-0.1,0.2,0
		c0.7,0.5,1.2,0.7,2.1,1c-0.1,0.1-0.2,0.2-0.2,0.3c-0.1,0.2-0.1,0.2-0.3,0.1c-0.7-0.2-1.3-0.6-2-1c-0.1-0.1-0.1-0.1,0-0.2L520.7,1.8
		z"/>
	<path class="st0" d="M531.7,2.5c0.5,0,0.7,0,0.8-0.1c0.1-0.1,0.2,0,0.3,0c0.2,0.2,0.3,0.3,0.5,0.5c0.1,0.1,0.1,0.3-0.1,0.3
		c-0.2,0.1-0.3,0.2-0.5,0.5c-0.8,1-2,2.1-3.1,3.1c0.4,0.4,0.8,0.8,1.1,1.3c0.1,0.1,0.1,0.1,0,0.2c-0.1,0.1-0.3,0.3-0.4,0.4
		c-0.1,0.1-0.1,0.1-0.2,0c-1-1.3-2.1-2.4-3.4-3.3c0.1-0.1,0.3-0.3,0.4-0.4c0.1-0.1,0.1-0.1,0.2,0c0.6,0.5,1.2,0.9,1.7,1.4
		c1.1-0.9,2.3-2.2,3-3.1l-4.8,0c-0.9,0-1.6,0-2.2,0.1c-0.1,0-0.2,0-0.2-0.1c0-0.2-0.1-0.5-0.1-0.8c0.7,0.1,1.5,0.1,2.4,0.1H531.7z"
		/>
	<path class="st0" d="M536.1,1.7c0.1-0.1,0.1-0.1,0.2,0c0.6,0.3,1.3,0.9,2,1.5c0.1,0.1,0.1,0.1,0,0.2c-0.1,0.1-0.3,0.4-0.4,0.5
		c-0.1,0.1-0.1,0.1-0.2,0c-0.6-0.6-1.4-1.2-2.1-1.6C535.8,2.1,536,1.9,536.1,1.7z M537.1,7.6c1.2-0.6,2.2-1.2,3.2-2
		c1.1-0.9,2-1.7,3-3c0,0.3,0.1,0.5,0.2,0.7c0.1,0.1,0.1,0.2-0.1,0.4c-0.7,0.9-1.7,1.7-2.7,2.5c-0.9,0.7-2,1.5-3.3,2.1
		c-0.3,0.2-0.5,0.3-0.6,0.4c-0.1,0.1-0.2,0.1-0.3,0c-0.2-0.2-0.4-0.4-0.5-0.7C536.4,7.9,536.7,7.8,537.1,7.6z"/>
	<path class="st0" d="M546,3.6c0-0.1,0.1-0.1,0.2-0.1c0.7,0.3,1.3,0.6,1.9,1c0.1,0.1,0.1,0.1,0.1,0.2c-0.1,0.2-0.2,0.3-0.3,0.5
		c-0.1,0.1-0.1,0.1-0.2,0c-0.6-0.5-1.3-0.8-2-1.1C545.8,4,545.9,3.8,546,3.6z M547.7,7.9c1-0.5,2-1.1,3-1.9c0.9-0.7,2.1-1.8,3.1-3
		c0,0.3,0.1,0.5,0.2,0.7c0.1,0.1,0,0.2-0.1,0.3c-0.9,1.1-1.9,1.9-2.9,2.7c-1,0.8-2.1,1.4-3.2,2.1c-0.2,0.1-0.4,0.3-0.5,0.4
		c-0.1,0.1-0.2,0.1-0.3,0c-0.1-0.2-0.4-0.5-0.5-0.7C546.9,8.2,547.2,8.1,547.7,7.9z M547.2,1.1c0.1-0.1,0.1-0.1,0.2-0.1
		c0.7,0.3,1.3,0.7,1.9,1.1c0.1,0.1,0.1,0.1,0,0.2c-0.1,0.1-0.2,0.4-0.3,0.5C549,3,549,3,548.9,2.9c-0.5-0.5-1.3-0.9-2-1.2
		C547,1.5,547.1,1.3,547.2,1.1z"/>
	<path class="st0" d="M561.1,4.4h-2.5c-0.5,0-1.2,0-1.6,0.1c-0.1,0-0.2,0-0.2-0.2c0-0.2,0-0.4,0-0.6c0.6,0,1.2,0.1,1.8,0.1h1.8
		c0.4,0,0.9,0,1.3,0c0.1,0,0.1,0,0.1,0.1c0,0.5,0,0.9,0,1.4v2.3c0,0.4,0,1,0,1.6c0,0.1,0,0.2-0.2,0.2c-0.1,0-0.3,0-0.4,0
		c-0.1,0-0.1,0-0.1-0.1V8.8h-2.6c-0.5,0-1,0-1.6,0.1c-0.1,0-0.1,0-0.2-0.2c0-0.2,0-0.4,0-0.6c0.6,0,1.3,0.1,1.8,0.1h2.6V6.5h-2.3
		c-0.4,0-1.1,0-1.6,0.1c-0.1,0-0.2,0-0.2-0.2c0-0.1,0-0.4,0-0.6c0.6,0,1.3,0,1.8,0h2.3V4.4z"/>
	<path class="st0" d="M565.4,1.7c0.1-0.1,0.1-0.1,0.2,0c0.6,0.3,1.3,0.9,2,1.5c0.1,0.1,0.1,0.1,0,0.2c-0.1,0.1-0.3,0.4-0.4,0.5
		c-0.1,0.1-0.1,0.1-0.2,0c-0.6-0.6-1.4-1.2-2.1-1.6C565.1,2.1,565.2,1.9,565.4,1.7z M566.4,7.6c1.2-0.6,2.2-1.2,3.2-2
		c1.1-0.9,2-1.7,3-3c0,0.3,0.1,0.5,0.2,0.7c0.1,0.1,0.1,0.2-0.1,0.4c-0.7,0.9-1.7,1.7-2.7,2.5c-0.9,0.7-2,1.5-3.3,2.1
		c-0.3,0.2-0.5,0.3-0.6,0.4c-0.1,0.1-0.2,0.1-0.3,0c-0.2-0.2-0.4-0.4-0.5-0.7C565.6,7.9,566,7.8,566.4,7.6z"/>
	<path class="st0" d="M426.1,16.7c-0.6,0-1.3,0-1.8,0.1c-0.1,0-0.2,0-0.2-0.2c0-0.2,0-0.5-0.1-0.7c0.7,0.1,1.3,0.1,2.1,0.1h3.9
		c0.3,0,0.4,0,0.5-0.1c0.1-0.1,0.2,0,0.3,0c0.2,0.1,0.4,0.3,0.5,0.5c0.1,0.1,0.1,0.2,0,0.3c-0.1,0.1-0.2,0.2-0.2,0.4
		c-0.5,1.4-1.3,2.6-2.2,3.6c-0.9,1-1.9,1.9-3.3,2.7c-0.1,0.1-0.3,0.1-0.4,0c-0.1-0.1-0.3-0.3-0.6-0.4c1.7-0.8,2.6-1.7,3.6-2.7
		c0.8-0.9,1.6-2.1,2.1-3.5H426.1z M433.3,14.9c0,0.6-0.5,1.1-1.1,1.1s-1.1-0.5-1.1-1.1s0.5-1.1,1.1-1.1S433.3,14.3,433.3,14.9z
		 M431.5,14.9c0,0.4,0.3,0.7,0.7,0.7c0.4,0,0.7-0.3,0.7-0.7c0-0.4-0.3-0.7-0.7-0.7C431.8,14.2,431.5,14.5,431.5,14.9z"/>
	<path class="st0" d="M436.5,21.6c1.1-0.4,2-0.8,3-1.4c1.1-0.6,2-1.3,2.9-2.2c0,0.3,0,0.6,0.1,0.8c0,0.1,0,0.2-0.1,0.3
		c-0.8,0.7-1.8,1.4-2.8,1.9c-0.8,0.5-1.7,0.9-2.7,1.3c-0.3,0.1-0.5,0.2-0.6,0.3c-0.1,0.1-0.2,0.1-0.3,0c-0.1-0.1-0.3-0.3-0.4-0.4
		c-0.1-0.1-0.1-0.2,0-0.3c0-0.1,0.1-0.2,0.1-0.6l0-3.6c0-1.1,0-1.8-0.1-2.5c0.3,0,0.8,0.1,0.9,0.2c0.1,0,0.1,0.1,0.1,0.3
		c-0.1,0.2-0.1,0.7-0.1,2L436.5,21.6z"/>
	<path class="st0" d="M445.4,21.1c0-0.1,0.1-0.1,0.2-0.1c1.6,0.3,3.5,0.8,5.1,1.7c0.1,0,0.1,0.1,0.1,0.2c-0.1,0.2-0.2,0.3-0.2,0.5
		c-0.1,0.1-0.1,0.1-0.2,0.1c-1.6-0.8-3.5-1.4-5.2-1.7C445.2,21.5,445.3,21.2,445.4,21.1z M445.6,17.7c0-0.1,0.1-0.1,0.2-0.1
		c1.1,0.2,2.3,0.6,3.2,1.1c0.1,0.1,0.1,0.1,0.1,0.2c0,0.1-0.1,0.4-0.2,0.5c-0.1,0.1-0.1,0.1-0.2,0.1c-1.1-0.5-2.3-0.9-3.4-1.1
		C445.4,18,445.5,17.8,445.6,17.7z M446.3,14.8c0.1-0.1,0.1-0.1,0.2-0.1c1.1,0.2,2.6,0.6,3.8,1.2c0.1,0.1,0.1,0.1,0.1,0.2
		c0,0.1-0.2,0.4-0.2,0.5c0,0.1-0.1,0.1-0.2,0c-1.2-0.6-2.7-1-3.9-1.2C446.1,15.2,446.2,14.9,446.3,14.8z"/>
	<path class="st0" d="M459.1,15.8c0.4,0,0.5,0,0.6-0.1c0.1,0,0.1,0,0.2,0c0.2,0.1,0.3,0.3,0.5,0.5c0.1,0.1,0,0.2-0.1,0.3
		c-0.1,0.1-0.2,0.2-0.3,0.4c-0.5,0.8-1,1.6-1.6,2.4c1.1,0.8,2.2,1.7,3.2,2.8c0.1,0.1,0.1,0.1,0,0.2c-0.1,0.1-0.3,0.3-0.4,0.4
		c-0.1,0.1-0.1,0.1-0.2,0c-0.9-1.1-2-2-3-2.8c-1.3,1.3-2.6,2.3-3.9,3.1c-0.1,0.1-0.2,0.1-0.3,0c-0.1-0.2-0.3-0.3-0.6-0.4
		c1.7-0.8,3-1.8,4-3c0.7-0.8,1.4-1.7,2.1-2.9H456c-0.6,0-1.1,0-1.6,0.1c-0.1,0-0.1,0-0.1-0.1c0-0.2-0.1-0.5-0.1-0.7c0.5,0,1,0,1.7,0
		H459.1z"/>
	<path class="st0" d="M466.6,17.7c1.3,0.4,2.5,0.9,3.6,1.5c0.1,0,0.1,0.1,0.1,0.2c-0.1,0.2-0.2,0.4-0.3,0.5c-0.1,0.1-0.1,0.1-0.2,0
		c-1-0.7-2.2-1.2-3.2-1.5v2.6c0,0.7,0,1.5,0,2.2c0,0.1,0,0.1-0.1,0.1c-0.2,0-0.4,0-0.6,0c-0.1,0-0.2,0-0.2-0.2c0-0.7,0-1.6,0-2.2
		v-4.9c0-0.8,0-1.4-0.1-1.8c0.4,0,0.7,0.1,0.9,0.1c0.2,0,0.1,0.2,0.1,0.3c-0.1,0.2-0.1,0.5-0.1,1.2V17.7z"/>
	<path class="st0" d="M475.3,15.9c0-0.8,0-1.1-0.1-1.5c0.3,0,0.5,0,0.8,0.1c0.1,0,0.1,0.1,0.1,0.1c0,0.1,0,0.1-0.1,0.2
		c0,0.1-0.1,0.4-0.1,1.1v6c0,1.2,0,1.7,0,1.8c0,0.1,0,0.1-0.1,0.1h-0.6c-0.1,0-0.1,0-0.1-0.1c0-0.1,0-0.6,0-1.8v-0.8
		c-0.7,0.5-1.5,0.9-2.1,1.2c-0.2,0.1-0.3,0.2-0.4,0.2c0,0-0.1,0.1-0.1,0.1s-0.1,0-0.1-0.1c-0.1-0.2-0.2-0.4-0.3-0.7
		c0.3-0.1,0.5-0.1,0.9-0.3c0.7-0.3,1.3-0.6,2.1-1.1v-2.7h-1.5c-0.9,0-1.2,0-1.3,0c-0.1,0-0.1,0-0.1-0.1v-0.5c0-0.1,0-0.1,0.1-0.1
		c0.1,0,0.4,0,1.3,0h1.5V15.9z M478.3,21.8c0,0.6,0,0.8,0.2,0.9c0.1,0.1,0.3,0.2,1.1,0.2c0.7,0,1.1-0.1,1.3-0.3
		c0.3-0.2,0.3-0.7,0.4-1.7c0.1,0.1,0.3,0.2,0.5,0.3c0.2,0.1,0.2,0.1,0.2,0.3c-0.1,1.2-0.3,1.5-0.6,1.7c-0.3,0.3-1,0.4-1.7,0.4
		c-1.1,0-1.4-0.1-1.7-0.3c-0.2-0.1-0.3-0.3-0.3-0.9v-6.1c0-0.8,0-1.4-0.1-1.7c0.3,0,0.5,0,0.7,0.1c0.1,0,0.2,0.1,0.2,0.1
		c0,0.1,0,0.1-0.1,0.2c0,0.1-0.1,0.4-0.1,1.4v1.9c0.8-0.5,1.6-1.1,2.1-1.5c0.2-0.2,0.4-0.4,0.5-0.6c0.2,0.2,0.4,0.3,0.5,0.5
		c0.1,0.1,0.1,0.1,0.1,0.2c0,0-0.1,0.1-0.1,0.1c-0.1,0-0.3,0.1-0.6,0.4c-0.7,0.5-1.5,1.1-2.5,1.6V21.8z"/>
	<path class="st0" d="M485.4,21c0-0.9,0-1.2,0-1.3c-0.5,0.3-1,0.6-1.5,0.9c-0.1,0-0.1,0.1-0.2,0.1c-0.1,0-0.1,0-0.2-0.2
		c-0.1-0.2-0.2-0.3-0.4-0.4c1.8-0.7,3.4-2,4.3-3.4c0.2-0.3,0.3-0.4,0.3-0.6c0.2,0,0.5,0.1,0.7,0.2c0.1,0,0.1,0.1,0.1,0.1
		c0,0.1,0,0.1-0.1,0.2c1.2,1.5,2.6,2.6,4.9,3.4c-0.2,0.1-0.3,0.3-0.4,0.5c-0.1,0.1-0.1,0.2-0.1,0.2c0,0-0.1,0-0.2-0.1
		c-2.2-1-3.5-2.1-4.6-3.5c-0.7,1-1.6,1.9-2.7,2.7c0.1,0,0.4,0,1.5,0h2.6c1,0,1.4,0,1.5,0c0.1,0,0.1,0,0.1,0.1c0,0.1,0,0.3,0,1.1v1
		c0,1.6,0,1.8,0,1.9c0,0.1,0,0.1-0.1,0.1h-0.5c-0.1,0-0.1,0-0.1-0.1v-0.6h-4.3v0.6c0,0.1,0,0.1-0.1,0.1h-0.5c-0.1,0-0.1,0-0.1-0.1
		c0-0.1,0-0.3,0-1.9V21z M486.9,14.9c-0.1,0.1-0.2,0.2-0.3,0.2c-0.6,0.7-1.2,1.3-2.1,1.9c-0.1,0-0.1,0.1-0.2,0.1
		c-0.1,0-0.1,0-0.2-0.1c-0.1-0.1-0.3-0.3-0.4-0.3c0.9-0.4,1.7-1.1,2.1-1.6c0.3-0.3,0.4-0.6,0.5-0.8c0.2,0.1,0.4,0.2,0.6,0.3
		c0.1,0,0.1,0.1,0.1,0.1C487.1,14.8,487,14.8,486.9,14.9z M490.4,20.3h-4.3v2.3h4.3V20.3z M489.7,14.3c0.1-0.1,0.1-0.1,0.2,0
		c0.9,1,1.6,1.5,2.8,2.1c-0.2,0.1-0.3,0.2-0.4,0.4c-0.1,0.1-0.1,0.2-0.2,0.2c0,0-0.1,0-0.2-0.1c-1-0.6-1.9-1.2-2.7-2.3
		c0-0.1,0-0.1,0.1-0.2L489.7,14.3z"/>
	<path class="st0" d="M500.5,16.2c-0.9,0-1.5,0-2,0.1c-0.1,0-0.2,0-0.2-0.1c0-0.2-0.1-0.5-0.1-0.8c0.7,0.1,1.3,0.1,2.3,0.1h4.6
		c0.6,0,0.7,0,0.8-0.1c0.1,0,0.1,0,0.2,0c0.1,0,0.1,0,0.2,0.1c0.2,0.1,0.3,0.3,0.4,0.4c0.1,0.1,0.1,0.2-0.1,0.3
		c-0.1,0.1-0.2,0.2-0.2,0.3c-0.5,0.8-1.3,1.5-2.1,2.2c-0.1,0.1-0.2,0.1-0.3,0c-0.2-0.1-0.3-0.2-0.6-0.3c0.9-0.6,1.7-1.3,2.2-2.2
		H500.5z M501.2,20.7c0.4-0.8,0.5-1.7,0.5-2.7c0-0.4,0-0.6-0.1-0.9c0.3,0,0.7,0.1,0.9,0.2c0.2,0.1,0.2,0.2,0.1,0.3
		c-0.1,0.1-0.1,0.2-0.1,0.5c0,0.9-0.2,2-0.6,2.9c-0.4,0.9-1.2,1.6-2.1,2.2c-0.1,0.1-0.2,0.1-0.3,0c-0.2-0.1-0.4-0.3-0.6-0.3
		C500,22.3,500.8,21.6,501.2,20.7z"/>
	<path class="st0" d="M510.6,18.1c-0.6,0-1.1,0-1.6,0.1c-0.1,0-0.1,0-0.2-0.1c0-0.2-0.1-0.4-0.1-0.7c0.6,0.1,1.1,0.1,1.8,0.1h3.9
		c0.3,0,0.4,0,0.5-0.1c0.1-0.1,0.2-0.1,0.3,0c0.1,0.1,0.3,0.3,0.4,0.4c0.1,0.1,0.1,0.2,0,0.3c-0.1,0.1-0.2,0.2-0.3,0.4
		c-1,2.2-2.3,3.8-4.6,5c-0.1,0.1-0.2,0.1-0.3,0c-0.2-0.1-0.4-0.3-0.6-0.3c2.3-1.1,4-2.7,4.8-4.9H510.6z M511.5,15.9
		c-0.6,0-1.1,0-1.6,0c-0.1,0-0.1,0-0.1-0.2c0-0.2-0.1-0.5-0.1-0.7c0.6,0.1,1.1,0.1,1.8,0.1h1.7c0.7,0,1.2,0,1.7-0.1
		c0.1,0,0.1,0,0.1,0.1c0,0.1,0,0.3,0,0.5c0,0.1,0,0.2-0.1,0.1c-0.5,0-1,0-1.6,0H511.5z"/>
	<path class="st0" d="M520.8,17.9c0.2-0.6,0.3-0.9,0.4-1.2c0.4,0.1,0.7,0.2,0.9,0.4c0.2,0.1,0.1,0.2,0,0.3c-0.1,0.1-0.2,0.3-0.4,0.6
		c-0.5,1.2-1.3,2.4-2.5,3.6c-0.1,0.1-0.2,0.1-0.3,0c-0.1-0.1-0.3-0.2-0.6-0.3C519.5,20.2,520.4,18.9,520.8,17.9z M524.4,16.7
		c0.1-0.1,0.1-0.1,0.2,0c1.2,1.2,2.1,2.6,2.8,3.9c0.1,0.1,0.1,0.2,0,0.2c-0.1,0.1-0.3,0.2-0.5,0.3c-0.1,0.1-0.1,0-0.2-0.1
		c-0.7-1.5-1.6-2.9-2.7-4.1C524.1,16.9,524.3,16.8,524.4,16.7z"/>
	<path class="st0" d="M531.3,18.4c1.1-0.3,2.3-0.7,3.2-1.1c0.6-0.3,0.8-0.4,1.1-0.7c0.3,0.2,0.5,0.4,0.6,0.6
		c0.1,0.1,0.1,0.3-0.1,0.3c-0.2,0-0.5,0.2-1,0.4c-1.1,0.5-2.6,1-3.8,1.3v1.9c0,0.6,0.2,0.8,0.6,0.9c0.5,0.1,1,0.1,1.7,0.1
		c0.8,0,1.8-0.1,2.8-0.2c0.1,0,0.1,0,0.2,0.1c0,0.2,0,0.4,0.1,0.5c0,0.1,0,0.1-0.2,0.2c-1.1,0.2-1.9,0.2-3,0.2
		c-0.8,0-1.4-0.1-1.9-0.2c-0.6-0.2-0.9-0.6-0.9-1.4v-4.1c0-1,0-1.5-0.1-1.9c0.4,0,0.7,0.1,0.9,0.2c0.2,0,0.1,0.2,0.1,0.3
		c-0.1,0.2-0.1,0.6-0.1,1.3V18.4z M536,15.1c0.1,0,0.1,0,0.1,0c0.4,0.3,0.9,0.8,1.2,1.3c0,0,0,0.1,0,0.1l-0.3,0.3
		c-0.1,0-0.1,0-0.1,0c-0.3-0.5-0.8-1.1-1.3-1.4L536,15.1z M536.9,14.4c0,0,0.1,0,0.1,0c0.4,0.3,0.9,0.8,1.3,1.3c0,0.1,0,0.1,0,0.1
		l-0.3,0.3c0,0-0.1,0-0.1,0c-0.3-0.5-0.7-1-1.3-1.4L536.9,14.4z"/>
	<path class="st0" d="M541.1,19.5c-1,0-1.4,0.1-1.5,0.1c-0.1,0-0.2,0-0.2-0.2c0-0.2-0.1-0.5-0.1-0.8c0.7,0.1,1.5,0.1,2.4,0.1h3.4
		c0.8,0,1.6,0,2.4,0c0.1,0,0.2,0,0.2,0.1c0,0.2,0,0.4,0,0.6c0,0.1,0,0.1-0.2,0.1c-0.8,0-1.6,0-2.4,0H541.1z"/>
	<path class="st0" d="M553.9,18.2c0-0.3,0-0.7,0-1c0-0.3,0-0.5-0.1-0.8c0.3,0,0.7,0.1,0.9,0.1c0.1,0,0.2,0.1,0.1,0.2
		c0,0.1-0.1,0.2-0.1,0.3c0,0.1,0,0.3,0,0.4c0,0.3,0,0.5,0,0.7h1.5c0.7,0,1.5,0,2.1-0.1c0.1,0,0.1,0,0.1,0.1c0,0.2,0,0.4,0,0.5
		c0,0.1,0,0.2-0.1,0.2c-0.7,0-1.4,0-2.1,0h-1.5c-0.1,0.9-0.2,1.7-0.5,2.3c-0.4,0.8-0.9,1.6-1.8,2.1c-0.1,0.1-0.1,0.1-0.3,0
		c-0.2-0.1-0.4-0.2-0.7-0.3c1.1-0.6,1.6-1.3,2-2.1c0.3-0.6,0.4-1.3,0.5-2.1h-2c-0.6,0-1.2,0-1.8,0.1c-0.1,0-0.2,0-0.2-0.2
		c0-0.2-0.1-0.4-0.1-0.6c0.8,0.1,1.5,0.1,2.1,0.1H553.9z M556.9,15.2c0.1,0.1,0.1,0.2,0.1,0.2c0,0.1-0.1,0.1-0.3,0.2
		c-0.2,0-0.4,0.1-0.6,0.2c-0.8,0.2-1.5,0.4-2.3,0.6c-0.9,0.2-1.8,0.3-2.9,0.4c-0.1,0-0.2-0.1-0.2-0.1c-0.1-0.1-0.2-0.3-0.4-0.5
		c1.3-0.1,2.2-0.2,3.2-0.4c0.8-0.2,1.5-0.4,2-0.5c0.4-0.2,0.5-0.2,0.7-0.4C556.6,14.9,556.8,15,556.9,15.2z"/>
	<path class="st0" d="M562.5,21.6c1.1-0.4,2-0.8,3-1.4c1.1-0.6,2-1.3,2.9-2.2c0,0.3,0,0.6,0.1,0.8c0,0.1,0,0.2-0.1,0.3
		c-0.8,0.7-1.8,1.4-2.8,1.9c-0.8,0.5-1.7,0.9-2.7,1.3c-0.3,0.1-0.5,0.2-0.6,0.3c-0.1,0.1-0.2,0.1-0.3,0c-0.1-0.1-0.3-0.3-0.4-0.4
		c-0.1-0.1-0.1-0.2,0-0.3c0-0.1,0.1-0.2,0.1-0.6l0-3.6c0-1.1,0-1.8-0.1-2.5c0.3,0,0.8,0.1,0.9,0.2c0.1,0,0.1,0.1,0.1,0.3
		c-0.1,0.2-0.1,0.7-0.1,2L562.5,21.6z"/>
	<path class="st0" d="M570.9,17.8c0-0.1,0.1-0.1,0.2-0.1c0.7,0.3,1.3,0.6,1.9,1c0.1,0.1,0.1,0.1,0.1,0.2c-0.1,0.2-0.2,0.3-0.3,0.5
		c-0.1,0.1-0.1,0.1-0.2,0c-0.6-0.5-1.3-0.8-2-1.1C570.7,18.1,570.8,17.9,570.9,17.8z M572.6,22c1-0.5,2-1.1,3-1.9
		c0.9-0.7,2.1-1.8,3.1-3c0,0.3,0.1,0.5,0.2,0.7c0.1,0.1,0,0.2-0.1,0.3c-0.9,1.1-1.9,1.9-2.9,2.7c-1,0.8-2.1,1.4-3.2,2.1
		c-0.2,0.1-0.4,0.3-0.5,0.4c-0.1,0.1-0.2,0.1-0.3,0c-0.1-0.2-0.4-0.5-0.5-0.7C571.9,22.3,572.2,22.2,572.6,22z M572.2,15.2
		c0.1-0.1,0.1-0.1,0.2-0.1c0.7,0.3,1.3,0.7,1.9,1.1c0.1,0.1,0.1,0.1,0,0.2c-0.1,0.1-0.2,0.4-0.3,0.5c-0.1,0.1-0.1,0.1-0.2,0
		c-0.5-0.5-1.3-0.9-2-1.2C572,15.6,572.1,15.4,572.2,15.2z M577,14.8c0,0,0.1,0,0.1,0c0.4,0.3,0.9,0.8,1.2,1.3c0,0,0,0.1,0,0.1
		l-0.3,0.3c-0.1,0-0.1,0-0.1,0c-0.3-0.5-0.8-1.1-1.3-1.4L577,14.8z M577.9,14c0,0,0.1,0,0.1,0c0.4,0.3,0.9,0.8,1.3,1.3
		c0,0.1,0,0.1,0,0.1l-0.3,0.3c0,0-0.1,0-0.1,0c-0.3-0.5-0.7-1-1.3-1.4L577.9,14z"/>
	<path class="st0" d="M585.9,18.4c-0.1,1.3-0.2,2.1-0.7,2.9c-0.5,0.9-1.1,1.6-1.9,2.1c-0.1,0.1-0.2,0.1-0.3,0
		c-0.2-0.2-0.4-0.3-0.6-0.4c1.1-0.6,1.7-1.1,2.2-2c0.4-0.8,0.6-1.6,0.6-2.7h-2.2c-0.5,0-1.1,0-1.6,0.1c-0.1,0-0.1,0-0.2-0.2
		c0-0.2-0.1-0.5-0.1-0.6c0.6,0,1.2,0.1,1.8,0.1h4.8c0.8,0,1.3,0,2-0.1c0.1,0,0.1,0,0.1,0.2v0.5c0,0.1,0,0.1-0.1,0.1
		c-0.6,0-1.3,0-2,0H585.9z M584.1,16c-0.5,0-1,0-1.6,0c-0.1,0-0.1,0-0.1-0.1c0-0.2,0-0.4-0.1-0.6c0.6,0,1.3,0.1,1.8,0.1h1.9
		c0.6,0,1.3,0,1.9,0c0.1,0,0.1,0,0.1,0.1c0,0.1,0,0.3,0,0.4c0,0.1,0,0.2-0.1,0.2c-0.6,0-1.3,0-1.8,0H584.1z M588.6,14.3
		c0,0,0.1,0,0.1,0c0.4,0.3,0.8,1,1.1,1.4c0,0,0,0.1,0,0.1l-0.3,0.2c-0.1,0-0.1,0-0.1,0c-0.3-0.5-0.7-1.1-1.1-1.5L588.6,14.3z
		 M589.6,13.7c0,0,0.1,0,0.1,0c0.4,0.3,0.8,0.9,1.1,1.4c0,0.1,0,0.1,0,0.1l-0.3,0.2c-0.1,0-0.1,0-0.1,0c-0.3-0.5-0.6-1.1-1.1-1.5
		L589.6,13.7z"/>
	<path class="st0" d="M592.5,15.7c0.1-0.1,0.1-0.1,0.2,0c0.6,0.3,1.3,0.9,2,1.5c0.1,0.1,0.1,0.1,0,0.2c-0.1,0.1-0.3,0.4-0.4,0.5
		c-0.1,0.1-0.1,0.1-0.2,0c-0.6-0.6-1.4-1.2-2.1-1.6C592.2,16.1,592.4,15.9,592.5,15.7z M593.5,21.6c1.2-0.6,2.2-1.2,3.2-2
		c1.1-0.9,2-1.7,3-3c0,0.3,0.1,0.5,0.2,0.7c0.1,0.1,0.1,0.2-0.1,0.4c-0.7,0.9-1.7,1.7-2.7,2.5c-0.9,0.7-2,1.5-3.3,2.1
		c-0.3,0.2-0.5,0.3-0.6,0.4c-0.1,0.1-0.2,0.1-0.3,0c-0.2-0.2-0.4-0.4-0.5-0.7C592.8,21.9,593.1,21.8,593.5,21.6z"/>
	<path class="st0" d="M607.5,15.8c0.4,0,0.5,0,0.6-0.1c0.1,0,0.1,0,0.2,0c0.2,0.1,0.3,0.3,0.5,0.5c0.1,0.1,0,0.2-0.1,0.3
		c-0.1,0.1-0.2,0.2-0.3,0.4c-0.5,0.8-1,1.6-1.6,2.4c1.1,0.8,2.2,1.7,3.2,2.8c0.1,0.1,0.1,0.1,0,0.2c-0.1,0.1-0.3,0.3-0.4,0.4
		c-0.1,0.1-0.1,0.1-0.2,0c-0.9-1.1-2-2-3-2.8c-1.3,1.3-2.6,2.3-3.9,3.1c-0.1,0.1-0.2,0.1-0.3,0c-0.1-0.2-0.3-0.3-0.6-0.4
		c1.7-0.8,3-1.8,4-3c0.7-0.8,1.4-1.7,2.1-2.9h-3.3c-0.6,0-1.1,0-1.6,0.1c-0.1,0-0.1,0-0.1-0.1c0-0.2-0.1-0.5-0.1-0.7
		c0.5,0,1,0,1.7,0H607.5z"/>
</g>
</svg>
